<?xml version="1.0" encoding="UTF-8"?><svg id="Layer_2" xmlns="http://www.w3.org/2000/svg" viewBox="0 0 133.22 26.69"><defs><style>.cls-1{fill:#fff;stroke-width:0px;}</style></defs><g id="Layer_1-2"><path class="cls-1" d="M64.08,19.07c-1.07-.61-1.91-1.45-2.52-2.53-.61-1.08-.91-2.3-.91-3.66s.3-2.6.91-3.68c.61-1.08,1.45-1.92,2.52-2.52,1.07-.6,2.29-.9,3.64-.9,1.12,0,2.15.22,3.07.66.92.44,1.67,1.08,2.24,1.92l-.99.72c-.5-.7-1.12-1.22-1.86-1.57-.74-.35-1.56-.52-2.45-.52-1.09,0-2.07.25-2.93.74-.87.49-1.54,1.18-2.04,2.08-.49.89-.74,1.92-.74,3.08s.25,2.19.74,3.08c.49.89,1.17,1.58,2.04,2.08.87.49,1.84.74,2.93.74.89,0,1.71-.17,2.45-.52.74-.35,1.36-.87,1.86-1.57l.99.72c-.57.84-1.32,1.48-2.24,1.92-.92.44-1.94.66-3.07.66-1.36,0-2.57-.3-3.64-.91Z"/><path class="cls-1" d="M75.06,0h1.34v19.88h-1.34V0Z"/><path class="cls-1" d="M82.2,19.07c-1.06-.61-1.9-1.45-2.5-2.53-.61-1.08-.91-2.3-.91-3.66s.3-2.58.91-3.66c.61-1.08,1.44-1.92,2.5-2.53,1.06-.61,2.25-.91,3.58-.91s2.51.3,3.58.91c1.06.61,1.9,1.45,2.5,2.53.61,1.08.91,2.3.91,3.66s-.3,2.58-.91,3.66c-.61,1.08-1.44,1.92-2.5,2.53-1.06.61-2.26.91-3.58.91s-2.51-.3-3.58-.91ZM88.66,18.03c.85-.5,1.52-1.2,2.01-2.09s.74-1.91.74-3.05-.25-2.16-.74-3.05c-.49-.89-1.16-1.59-2.01-2.09s-1.81-.75-2.88-.75-2.03.25-2.88.75-1.52,1.2-2.01,2.09c-.49.89-.74,1.91-.74,3.05s.25,2.16.74,3.05c.49.89,1.16,1.59,2.01,2.09.85.5,1.81.75,2.88.75s2.03-.25,2.88-.75Z"/><path class="cls-1" d="M107.42,5.89v13.98h-1.29v-3c-.46.98-1.15,1.75-2.06,2.29-.91.54-1.98.82-3.21.82-1.82,0-3.25-.51-4.29-1.53-1.04-1.02-1.55-2.48-1.55-4.39V5.89h1.34v8.06c0,1.57.4,2.77,1.21,3.59s1.94,1.23,3.4,1.23c1.57,0,2.82-.49,3.74-1.47.92-.98,1.38-2.3,1.38-3.96v-7.45h1.34Z"/><path class="cls-1" d="M123.79,0v19.88h-1.31v-3.3c-.55,1.09-1.33,1.93-2.33,2.52-1,.59-2.13.88-3.4.88s-2.48-.3-3.54-.91c-1.05-.61-1.88-1.45-2.48-2.52-.6-1.07-.9-2.29-.9-3.67s.3-2.6.9-3.68,1.42-1.92,2.48-2.52c1.05-.6,2.23-.9,3.54-.9s2.37.29,3.36.88,1.77,1.41,2.34,2.46V0h1.34ZM119.71,18.03c.85-.5,1.52-1.2,2.01-2.09s.74-1.91.74-3.05-.25-2.16-.74-3.05c-.49-.89-1.16-1.59-2.01-2.09s-1.81-.75-2.88-.75-2.03.25-2.88.75-1.52,1.2-2.01,2.09c-.49.89-.74,1.91-.74,3.05s.25,2.16.74,3.05c.49.89,1.16,1.59,2.01,2.09.85.5,1.81.75,2.88.75s2.03-.25,2.88-.75Z"/><path class="cls-1" d="M34.15,5.88c-3.94,0-7.14,3.2-7.14,7.14s3.2,7.14,7.14,7.14,7.14-3.2,7.14-7.14h0c0-3.94-3.2-7.13-7.14-7.14ZM34.15,17.48c-2.46,0-4.46-2-4.46-4.46,0-2.46,2-4.46,4.46-4.46,2.46,0,4.46,2,4.46,4.46,0,2.46-2,4.46-4.46,4.46h0Z"/><path class="cls-1" d="M7.2,5.84C3.26,5.8.04,8.97,0,12.91c-.04,3.94,3.13,7.17,7.07,7.2.04,0,.09,0,.13,0h2.35v-2.67h-2.35c-2.46.03-4.48-1.94-4.51-4.41-.03-2.46,1.94-4.48,4.41-4.51.03,0,.07,0,.1,0,2.46,0,4.47,2,4.47,4.46h0v6.57h0c0,2.44-1.99,4.43-4.43,4.46-1.17,0-2.28-.48-3.1-1.31l-1.89,1.89c1.31,1.32,3.09,2.07,4.95,2.09h.1c3.89-.06,7.02-3.21,7.04-7.1v-6.78c-.1-3.87-3.26-6.96-7.13-6.96Z"/><path class="cls-1" d="M57.17,26.38v-13.54c-.1-3.87-3.26-6.96-7.13-6.96-3.94-.04-7.17,3.13-7.2,7.07-.04,3.94,3.13,7.17,7.07,7.2.04,0,.09,0,.13,0h2.35v-2.67h-2.35c-2.46.03-4.48-1.94-4.51-4.41-.03-2.46,1.94-4.48,4.41-4.51.03,0,.07,0,.1,0,2.46,0,4.47,2,4.47,4.46h0v13.34h0l2.66.03Z"/><path class="cls-1" d="M16.38,20.15h2.66v-7.14c0-2.46,2-4.46,4.46-4.46.81,0,1.57.22,2.23.6l1.34-2.32c-1.05-.61-2.27-.95-3.56-.95-3.94,0-7.14,3.2-7.14,7.14v7.14Z"/><path class="cls-1" d="M129.05.06v.54h-1.04v2.72h-.65V.6h-1.04V.06h2.74ZM132.57,3.32l-.12-1.92c-.01-.25-.01-.56-.02-.91h-.04c-.08.29-.18.67-.28.97l-.59,1.81h-.67l-.59-1.86c-.06-.25-.16-.64-.23-.92h-.04c0,.3-.01.61-.02.91l-.12,1.92h-.62l.24-3.26h.97l.56,1.6c.07.25.13.49.22.83h.01c.08-.3.16-.58.23-.82l.56-1.61h.94l.25,3.26h-.65Z"/></g></svg>